<svg xmlns="http://www.w3.org/2000/svg" xmlns:xlink="http://www.w3.org/1999/xlink" width="200" zoomAndPan="magnify" viewBox="0 0 150 74.999997" height="100" preserveAspectRatio="xMidYMid meet" version="1.2"><defs><clipPath id="18659632ec"><path d="M 3.144531 26 L 38 26 L 38 59.835938 L 3.144531 59.835938 Z M 3.144531 26 "/></clipPath><clipPath id="9791982eb9"><path d="M 24 26 L 48.144531 26 L 48.144531 58 L 24 58 Z M 24 26 "/></clipPath><clipPath id="7e8fb39953"><path d="M 33.03125 55.757812 L 38.933594 55.757812 L 38.933594 61.664062 L 33.03125 61.664062 Z M 33.03125 55.757812 "/></clipPath><clipPath id="51cb29b402"><path d="M 35.980469 55.757812 C 34.351562 55.757812 33.03125 57.082031 33.03125 58.710938 C 33.03125 60.339844 34.351562 61.664062 35.980469 61.664062 C 37.613281 61.664062 38.933594 60.339844 38.933594 58.710938 C 38.933594 57.082031 37.613281 55.757812 35.980469 55.757812 Z M 35.980469 55.757812 "/></clipPath><clipPath id="eab55cbf25"><path d="M 0.03125 0.757812 L 5.933594 0.757812 L 5.933594 6.664062 L 0.03125 6.664062 Z M 0.03125 0.757812 "/></clipPath><clipPath id="a2f9d007ad"><path d="M 2.980469 0.757812 C 1.351562 0.757812 0.03125 2.082031 0.03125 3.710938 C 0.03125 5.339844 1.351562 6.664062 2.980469 6.664062 C 4.613281 6.664062 5.933594 5.339844 5.933594 3.710938 C 5.933594 2.082031 4.613281 0.757812 2.980469 0.757812 Z M 2.980469 0.757812 "/></clipPath><clipPath id="3cd0dc573f"><rect x="0" width="6" y="0" height="7"/></clipPath><clipPath id="d4674d4432"><path d="M 3.144531 19.691406 L 9.050781 19.691406 L 9.050781 25.59375 L 3.144531 25.59375 Z M 3.144531 19.691406 "/></clipPath><clipPath id="c3193d6c56"><path d="M 6.097656 19.691406 C 4.46875 19.691406 3.144531 21.011719 3.144531 22.640625 C 3.144531 24.273438 4.46875 25.59375 6.097656 25.59375 C 7.726562 25.59375 9.050781 24.273438 9.050781 22.640625 C 9.050781 21.011719 7.726562 19.691406 6.097656 19.691406 Z M 6.097656 19.691406 "/></clipPath><clipPath id="6b64bfb12c"><path d="M 0.144531 0.691406 L 6.050781 0.691406 L 6.050781 6.59375 L 0.144531 6.59375 Z M 0.144531 0.691406 "/></clipPath><clipPath id="a800df11bd"><path d="M 3.097656 0.691406 C 1.46875 0.691406 0.144531 2.011719 0.144531 3.640625 C 0.144531 5.273438 1.46875 6.59375 3.097656 6.59375 C 4.726562 6.59375 6.050781 5.273438 6.050781 3.640625 C 6.050781 2.011719 4.726562 0.691406 3.097656 0.691406 Z M 3.097656 0.691406 "/></clipPath><clipPath id="29dbc4fed3"><rect x="0" width="7" y="0" height="7"/></clipPath></defs><g id="740078dabe"><rect x="0" width="150" y="0" height="74.999997" style="fill:#ffffff;fill-opacity:1;stroke:none;"/><rect x="0" width="150" y="0" height="74.999997" style="fill:#ffffff;fill-opacity:1;stroke:none;"/><path style=" stroke:none;fill-rule:nonzero;fill:#6a6cff;fill-opacity:1;" d="M 32.5 20.054688 C 33.847656 20.039062 35.179688 20.308594 36.445312 20.765625 C 36.15625 20.363281 35.824219 20.011719 35.464844 19.679688 C 34.59375 18.84375 33.75 17.980469 32.90625 17.117188 C 29.5625 13.867188 24.011719 13.335938 20.09375 15.851562 C 18.828125 16.5625 17.910156 17.703125 16.898438 18.707031 L 16.007812 18.84375 L 15.28125 18.953125 C 14.867188 18.988281 14.460938 19.058594 14.058594 19.140625 L 14.03125 19.140625 L 12.65625 19.355469 C 11.21875 19.507812 9.78125 19.742188 8.363281 20.019531 C 8.640625 20.03125 8.917969 20.039062 9.199219 20.046875 C 16.976562 20.046875 24.738281 20.054688 32.5 20.054688 Z M 32.5 20.054688 "/><g clip-rule="nonzero" clip-path="url(#18659632ec)"><path style=" stroke:none;fill-rule:nonzero;fill:#6a6cff;fill-opacity:1;" d="M 15.628906 42.328125 C 15.054688 41.113281 15.34375 39.558594 16.050781 38.464844 C 16.636719 37.566406 17.5625 37 18.585938 36.738281 C 20.453125 36.273438 22.566406 36.40625 24.480469 36.40625 C 26.5 36.40625 28.523438 36.460938 30.535156 36.460938 C 31.539062 36.460938 32.691406 36.613281 33.679688 36.414062 C 34.378906 36.273438 35.050781 35.921875 35.582031 35.4375 C 36.625 34.492188 37.09375 33.082031 37.15625 31.71875 C 37.191406 31.097656 37.144531 30.46875 37.027344 29.859375 C 36.644531 27.828125 34.871094 26.253906 32.808594 26.183594 C 31.421875 26.128906 30.023438 26.191406 28.628906 26.191406 C 27.136719 26.191406 25.648438 26.191406 24.15625 26.191406 C 21.171875 26.191406 18.191406 26.191406 15.207031 26.191406 C 13.25 26.191406 11.300781 26.191406 9.339844 26.191406 C 8.839844 26.703125 8.34375 27.199219 7.839844 27.703125 C 6.726562 28.816406 5.53125 29.882812 4.722656 31.257812 C 3.773438 32.820312 3.277344 34.644531 3.207031 36.46875 C 3.152344 38.453125 3.683594 40.441406 4.679688 42.15625 C 5.578125 43.648438 6.890625 44.796875 8.09375 46.019531 C 11.253906 49.179688 14.417969 52.34375 17.578125 55.503906 C 18.503906 56.449219 19.511719 57.328125 20.6875 57.957031 C 24.019531 59.753906 28.296875 59.558594 31.46875 57.5 C 26.554688 52.882812 21.550781 48.363281 16.617188 43.773438 C 16.203125 43.351562 15.882812 42.855469 15.628906 42.328125 Z M 15.628906 42.328125 "/></g><g clip-rule="nonzero" clip-path="url(#9791982eb9)"><path style=" stroke:none;fill-rule:nonzero;fill:#6a6cff;fill-opacity:1;" d="M 46.964844 31.921875 C 46.148438 30.421875 44.953125 29.148438 43.730469 27.988281 C 43.351562 27.628906 42.984375 27.269531 42.609375 26.910156 C 42.804688 27.65625 43.03125 28.402344 43.136719 29.175781 C 43.75 33.746094 42.25 38.929688 38.035156 41.347656 C 34.136719 43.585938 28.855469 43.429688 24.53125 42.765625 C 24.703125 42.9375 24.882812 43.117188 25.054688 43.277344 C 25.636719 43.816406 26.222656 44.347656 26.804688 44.878906 C 31.109375 48.847656 35.402344 52.828125 39.714844 56.78125 C 40.101562 57.140625 40.496094 57.492188 40.902344 57.832031 C 39.679688 55.902344 38.3125 54.058594 37.046875 52.15625 C 39.761719 49.433594 42.480469 46.71875 45.203125 43.996094 C 45.839844 43.359375 46.378906 42.632812 46.8125 41.839844 C 47.566406 40.476562 47.996094 38.941406 48.085938 37.386719 C 48.222656 35.507812 47.871094 33.59375 46.964844 31.921875 Z M 46.964844 31.921875 "/></g><g clip-rule="nonzero" clip-path="url(#7e8fb39953)"><g clip-rule="nonzero" clip-path="url(#51cb29b402)"><g transform="matrix(1,0,0,1,33,55)"><g clip-path="url(#3cd0dc573f)"><g clip-rule="nonzero" clip-path="url(#eab55cbf25)"><g clip-rule="nonzero" clip-path="url(#a2f9d007ad)"><path style=" stroke:none;fill-rule:nonzero;fill:#3b3f3f;fill-opacity:1;" d="M 0.03125 0.757812 L 5.933594 0.757812 L 5.933594 6.664062 L 0.03125 6.664062 Z M 0.03125 0.757812 "/></g></g></g></g></g></g><g clip-rule="nonzero" clip-path="url(#d4674d4432)"><g clip-rule="nonzero" clip-path="url(#c3193d6c56)"><g transform="matrix(1,0,0,1,3,19)"><g clip-path="url(#29dbc4fed3)"><g clip-rule="nonzero" clip-path="url(#6b64bfb12c)"><g clip-rule="nonzero" clip-path="url(#a800df11bd)"><path style=" stroke:none;fill-rule:nonzero;fill:#3b3f3f;fill-opacity:1;" d="M 0.144531 0.691406 L 6.050781 0.691406 L 6.050781 6.59375 L 0.144531 6.59375 Z M 0.144531 0.691406 "/></g></g></g></g></g></g><g style="fill:#3b3f3f;fill-opacity:1;"><g transform="translate(51.697876, 46.874995)"><path style="stroke:none" d="M 6.53125 -5.5625 L 4.703125 -5.5625 L 4.703125 0 L 1.1875 0 L 1.1875 -15.875 L 7.21875 -15.875 C 8.46875 -15.875 9.523438 -15.628906 10.390625 -15.140625 C 11.265625 -14.660156 11.914062 -14.023438 12.34375 -13.234375 C 12.769531 -12.441406 12.984375 -11.582031 12.984375 -10.65625 C 12.984375 -9.632812 12.722656 -8.707031 12.203125 -7.875 C 11.691406 -7.050781 10.9375 -6.4375 9.9375 -6.03125 L 13.34375 0 L 9.640625 0 Z M 4.703125 -8.4375 L 6.640625 -8.4375 C 7.460938 -8.4375 8.148438 -8.601562 8.703125 -8.9375 C 9.265625 -9.28125 9.546875 -9.851562 9.546875 -10.65625 C 9.546875 -11.425781 9.269531 -11.972656 8.71875 -12.296875 C 8.164062 -12.628906 7.472656 -12.796875 6.640625 -12.796875 L 4.703125 -12.796875 Z M 4.703125 -8.4375 "/></g></g><g style="fill:#3b3f3f;fill-opacity:1;"><g transform="translate(65.484733, 46.874995)"><path style="stroke:none" d="M 6.609375 0.203125 C 5.335938 0.203125 4.265625 -0.0859375 3.390625 -0.671875 C 2.523438 -1.253906 1.882812 -2.015625 1.46875 -2.953125 C 1.050781 -3.898438 0.84375 -4.921875 0.84375 -6.015625 C 0.84375 -7.097656 1.050781 -8.113281 1.46875 -9.0625 C 1.882812 -10.007812 2.523438 -10.773438 3.390625 -11.359375 C 4.265625 -11.953125 5.347656 -12.25 6.640625 -12.25 C 8.335938 -12.25 9.6875 -11.710938 10.6875 -10.640625 C 11.6875 -9.578125 12.1875 -8.035156 12.1875 -6.015625 L 12.1875 -5.03125 L 4.25 -5.03125 L 4.25 -4.859375 C 4.25 -4.234375 4.460938 -3.695312 4.890625 -3.25 C 5.316406 -2.8125 5.863281 -2.59375 6.53125 -2.59375 C 7.050781 -2.59375 7.488281 -2.707031 7.84375 -2.9375 C 8.207031 -3.175781 8.46875 -3.488281 8.625 -3.875 L 12.09375 -3.875 C 11.789062 -2.6875 11.164062 -1.707031 10.21875 -0.9375 C 9.269531 -0.175781 8.066406 0.203125 6.609375 0.203125 Z M 8.796875 -7.3125 C 8.785156 -8.125 8.578125 -8.722656 8.171875 -9.109375 C 7.773438 -9.503906 7.242188 -9.703125 6.578125 -9.703125 C 5.898438 -9.703125 5.359375 -9.488281 4.953125 -9.0625 C 4.554688 -8.644531 4.347656 -8.0625 4.328125 -7.3125 Z M 8.796875 -7.3125 "/></g></g><g style="fill:#3b3f3f;fill-opacity:1;"><g transform="translate(78.500612, 46.874995)"><path style="stroke:none" d="M 5.71875 0.203125 C 4.707031 0.203125 3.828125 0.015625 3.078125 -0.359375 C 2.335938 -0.742188 1.773438 -1.238281 1.390625 -1.84375 C 1.003906 -2.457031 0.8125 -3.101562 0.8125 -3.78125 L 0.8125 -3.953125 L 4.25 -3.953125 L 4.25 -3.8125 C 4.25 -3.46875 4.382812 -3.160156 4.65625 -2.890625 C 4.925781 -2.628906 5.3125 -2.5 5.8125 -2.5 C 6.226562 -2.5 6.566406 -2.597656 6.828125 -2.796875 C 7.085938 -3.003906 7.21875 -3.273438 7.21875 -3.609375 C 7.21875 -3.910156 7.09375 -4.148438 6.84375 -4.328125 C 6.601562 -4.515625 6.300781 -4.640625 5.9375 -4.703125 L 4.65625 -4.96875 C 3.769531 -5.125 2.957031 -5.476562 2.21875 -6.03125 C 1.476562 -6.582031 1.109375 -7.429688 1.109375 -8.578125 C 1.109375 -9.742188 1.523438 -10.644531 2.359375 -11.28125 C 3.203125 -11.925781 4.285156 -12.25 5.609375 -12.25 C 6.585938 -12.25 7.429688 -12.070312 8.140625 -11.71875 C 8.859375 -11.375 9.394531 -10.914062 9.75 -10.34375 C 10.113281 -9.78125 10.296875 -9.179688 10.296875 -8.546875 L 10.296875 -8.4375 L 6.875 -8.4375 L 6.875 -8.5 C 6.875 -8.8125 6.757812 -9.09375 6.53125 -9.34375 C 6.300781 -9.601562 5.953125 -9.734375 5.484375 -9.734375 C 5.097656 -9.734375 4.785156 -9.640625 4.546875 -9.453125 C 4.316406 -9.265625 4.203125 -9.003906 4.203125 -8.671875 C 4.203125 -8.078125 4.691406 -7.691406 5.671875 -7.515625 L 7.078125 -7.1875 C 8.023438 -6.976562 8.828125 -6.59375 9.484375 -6.03125 C 10.148438 -5.476562 10.484375 -4.6875 10.484375 -3.65625 C 10.484375 -2.863281 10.273438 -2.175781 9.859375 -1.59375 C 9.441406 -1.007812 8.867188 -0.5625 8.140625 -0.25 C 7.421875 0.0507812 6.613281 0.203125 5.71875 0.203125 Z M 5.71875 0.203125 "/></g></g><g style="fill:#3b3f3f;fill-opacity:1;"><g transform="translate(89.690061, 46.874995)"><path style="stroke:none" d="M 4.90625 -10.390625 L 4.90625 -3.453125 C 4.90625 -2.890625 4.929688 -2.472656 4.984375 -2.203125 C 5.035156 -1.941406 5.175781 -1.734375 5.40625 -1.578125 C 5.644531 -1.429688 6.03125 -1.359375 6.5625 -1.359375 C 6.914062 -1.359375 7.304688 -1.410156 7.734375 -1.515625 L 7.734375 -0.109375 C 7.628906 -0.0664062 7.398438 -0.0234375 7.046875 0.015625 C 6.691406 0.0664062 6.320312 0.09375 5.9375 0.09375 C 5.0625 0.09375 4.40625 -0.03125 3.96875 -0.28125 C 3.539062 -0.53125 3.265625 -0.867188 3.140625 -1.296875 C 3.015625 -1.734375 2.953125 -2.304688 2.953125 -3.015625 L 2.953125 -10.390625 L 0.71875 -10.390625 L 0.71875 -11.953125 L 2.953125 -11.953125 L 2.953125 -15.875 L 4.90625 -15.875 L 4.90625 -11.953125 L 7.734375 -11.953125 L 7.734375 -10.390625 Z M 4.90625 -10.390625 "/></g></g><g style="fill:#3b3f3f;fill-opacity:1;"><g transform="translate(98.601631, 46.874995)"><path style="stroke:none" d="M 6.078125 0.15625 C 5.015625 0.15625 4.109375 -0.113281 3.359375 -0.65625 C 2.617188 -1.195312 2.050781 -1.9375 1.65625 -2.875 C 1.257812 -3.8125 1.0625 -4.875 1.0625 -6.0625 C 1.0625 -7.238281 1.257812 -8.296875 1.65625 -9.234375 C 2.0625 -10.179688 2.644531 -10.925781 3.40625 -11.46875 C 4.175781 -12.007812 5.085938 -12.28125 6.140625 -12.28125 C 7.203125 -12.28125 8.054688 -12.03125 8.703125 -11.53125 C 9.359375 -11.03125 9.851562 -10.429688 10.1875 -9.734375 L 10.34375 -9.734375 L 10.34375 -11.953125 L 12.3125 -11.953125 L 12.3125 0 L 10.34375 0 L 10.34375 -2.453125 L 10.1875 -2.453125 C 9.820312 -1.742188 9.304688 -1.128906 8.640625 -0.609375 C 7.972656 -0.0976562 7.117188 0.15625 6.078125 0.15625 Z M 6.6875 -1.515625 C 7.851562 -1.515625 8.742188 -1.945312 9.359375 -2.8125 C 9.984375 -3.6875 10.296875 -4.769531 10.296875 -6.0625 C 10.296875 -7.34375 9.984375 -8.414062 9.359375 -9.28125 C 8.742188 -10.15625 7.851562 -10.59375 6.6875 -10.59375 C 5.5 -10.59375 4.597656 -10.160156 3.984375 -9.296875 C 3.367188 -8.441406 3.0625 -7.367188 3.0625 -6.078125 C 3.0625 -4.773438 3.367188 -3.6875 3.984375 -2.8125 C 4.597656 -1.945312 5.5 -1.515625 6.6875 -1.515625 Z M 6.6875 -1.515625 "/></g></g><g style="fill:#3b3f3f;fill-opacity:1;"><g transform="translate(112.660594, 46.874995)"><path style="stroke:none" d="M 7.921875 0.15625 C 6.878906 0.15625 6.023438 -0.0976562 5.359375 -0.609375 C 4.691406 -1.128906 4.175781 -1.742188 3.8125 -2.453125 L 3.65625 -2.453125 L 3.65625 0 L 1.671875 0 L 1.671875 -17.015625 L 3.65625 -17.015625 L 3.65625 -9.734375 L 3.8125 -9.734375 C 4.144531 -10.429688 4.632812 -11.03125 5.28125 -11.53125 C 5.9375 -12.03125 6.789062 -12.28125 7.84375 -12.28125 C 8.914062 -12.28125 9.832031 -12.007812 10.59375 -11.46875 C 11.363281 -10.925781 11.945312 -10.179688 12.34375 -9.234375 C 12.738281 -8.296875 12.9375 -7.238281 12.9375 -6.0625 C 12.9375 -4.875 12.738281 -3.8125 12.34375 -2.875 C 11.945312 -1.9375 11.367188 -1.195312 10.609375 -0.65625 C 9.859375 -0.113281 8.960938 0.15625 7.921875 0.15625 Z M 7.3125 -1.515625 C 8.488281 -1.515625 9.378906 -1.945312 9.984375 -2.8125 C 10.597656 -3.675781 10.90625 -4.757812 10.90625 -6.0625 C 10.90625 -7.34375 10.601562 -8.414062 10 -9.28125 C 9.394531 -10.144531 8.5 -10.578125 7.3125 -10.578125 C 6.125 -10.578125 5.222656 -10.144531 4.609375 -9.28125 C 4.003906 -8.414062 3.703125 -7.34375 3.703125 -6.0625 C 3.703125 -4.769531 4.007812 -3.6875 4.625 -2.8125 C 5.25 -1.945312 6.144531 -1.515625 7.3125 -1.515625 Z M 7.3125 -1.515625 "/></g></g><g style="fill:#3b3f3f;fill-opacity:1;"><g transform="translate(126.674203, 46.874995)"><path style="stroke:none" d="M 4.765625 0.09375 C 3.867188 0.09375 3.203125 -0.046875 2.765625 -0.328125 C 2.328125 -0.617188 2.050781 -0.992188 1.9375 -1.453125 C 1.820312 -1.921875 1.765625 -2.523438 1.765625 -3.265625 L 1.796875 -17.015625 L 3.75 -17.015625 L 3.75 -3.5625 C 3.75 -2.988281 3.773438 -2.5625 3.828125 -2.28125 C 3.878906 -2 4.019531 -1.773438 4.25 -1.609375 C 4.488281 -1.441406 4.863281 -1.359375 5.375 -1.359375 C 5.695312 -1.359375 5.976562 -1.378906 6.21875 -1.421875 L 6.21875 -0.015625 C 5.8125 0.0546875 5.328125 0.09375 4.765625 0.09375 Z M 4.765625 0.09375 "/></g></g><g style="fill:#3b3f3f;fill-opacity:1;"><g transform="translate(133.794385, 46.874995)"><path style="stroke:none" d="M 6.734375 0.15625 C 5.515625 0.15625 4.484375 -0.132812 3.640625 -0.71875 C 2.796875 -1.3125 2.171875 -2.082031 1.765625 -3.03125 C 1.359375 -3.988281 1.15625 -5 1.15625 -6.0625 C 1.15625 -7.132812 1.359375 -8.140625 1.765625 -9.078125 C 2.171875 -10.023438 2.796875 -10.796875 3.640625 -11.390625 C 4.492188 -11.984375 5.535156 -12.28125 6.765625 -12.28125 C 8.367188 -12.28125 9.648438 -11.738281 10.609375 -10.65625 C 11.566406 -9.582031 12.046875 -8.039062 12.046875 -6.03125 L 12.046875 -5.484375 L 3.109375 -5.484375 L 3.109375 -5.328125 C 3.109375 -4.660156 3.257812 -4.03125 3.5625 -3.4375 C 3.863281 -2.851562 4.285156 -2.378906 4.828125 -2.015625 C 5.378906 -1.648438 6.007812 -1.46875 6.71875 -1.46875 C 7.488281 -1.46875 8.148438 -1.664062 8.703125 -2.0625 C 9.265625 -2.457031 9.679688 -2.988281 9.953125 -3.65625 L 11.890625 -3.65625 C 11.566406 -2.5625 10.96875 -1.648438 10.09375 -0.921875 C 9.226562 -0.203125 8.109375 0.15625 6.734375 0.15625 Z M 10.125 -6.875 C 10.0625 -8.238281 9.726562 -9.222656 9.125 -9.828125 C 8.519531 -10.429688 7.722656 -10.734375 6.734375 -10.734375 C 5.660156 -10.734375 4.804688 -10.375 4.171875 -9.65625 C 3.535156 -8.945312 3.195312 -8.019531 3.15625 -6.875 Z M 10.125 -6.875 "/></g></g></g></svg>