<svg xmlns="http://www.w3.org/2000/svg" xmlns:xlink="http://www.w3.org/1999/xlink" width="100" zoomAndPan="magnify" viewBox="0 0 75.119995 83.04" height="100" preserveAspectRatio="xMidYMid meet" version="1.2"><defs><clipPath id="4b2026c15a"><path d="M 10.511719 23 L 51 23 L 51 63 L 10.511719 63 Z M 10.511719 23 "/></clipPath><clipPath id="b14e921b45"><path d="M 35 24 L 63.886719 24 L 63.886719 62 L 35 62 Z M 35 24 "/></clipPath><clipPath id="cda65fb623"><path d="M 45.550781 58.464844 L 52.503906 58.464844 L 52.503906 65.417969 L 45.550781 65.417969 Z M 45.550781 58.464844 "/></clipPath><clipPath id="108f88f47e"><path d="M 49.027344 58.464844 C 47.109375 58.464844 45.550781 60.023438 45.550781 61.941406 C 45.550781 63.863281 47.109375 65.417969 49.027344 65.417969 C 50.949219 65.417969 52.503906 63.863281 52.503906 61.941406 C 52.503906 60.023438 50.949219 58.464844 49.027344 58.464844 Z M 49.027344 58.464844 "/></clipPath><clipPath id="bb5aa5dcc9"><path d="M 0.550781 0.464844 L 7.503906 0.464844 L 7.503906 7.417969 L 0.550781 7.417969 Z M 0.550781 0.464844 "/></clipPath><clipPath id="af7ff3617c"><path d="M 4.027344 0.464844 C 2.109375 0.464844 0.550781 2.023438 0.550781 3.941406 C 0.550781 5.863281 2.109375 7.417969 4.027344 7.417969 C 5.949219 7.417969 7.503906 5.863281 7.503906 3.941406 C 7.503906 2.023438 5.949219 0.464844 4.027344 0.464844 Z M 4.027344 0.464844 "/></clipPath><clipPath id="85bd4d6778"><rect x="0" width="8" y="0" height="8"/></clipPath><clipPath id="9a9b5ff60e"><path d="M 10.511719 17.039062 L 17.464844 17.039062 L 17.464844 23.992188 L 10.511719 23.992188 Z M 10.511719 17.039062 "/></clipPath><clipPath id="feb687720b"><path d="M 13.988281 17.039062 C 12.070312 17.039062 10.511719 18.597656 10.511719 20.515625 C 10.511719 22.4375 12.070312 23.992188 13.988281 23.992188 C 15.910156 23.992188 17.464844 22.4375 17.464844 20.515625 C 17.464844 18.597656 15.910156 17.039062 13.988281 17.039062 Z M 13.988281 17.039062 "/></clipPath><clipPath id="374fa9594a"><path d="M 0.511719 0.0390625 L 7.464844 0.0390625 L 7.464844 6.992188 L 0.511719 6.992188 Z M 0.511719 0.0390625 "/></clipPath><clipPath id="80d017b530"><path d="M 3.988281 0.0390625 C 2.070312 0.0390625 0.511719 1.597656 0.511719 3.515625 C 0.511719 5.4375 2.070312 6.992188 3.988281 6.992188 C 5.910156 6.992188 7.464844 5.4375 7.464844 3.515625 C 7.464844 1.597656 5.910156 0.0390625 3.988281 0.0390625 Z M 3.988281 0.0390625 "/></clipPath><clipPath id="2cbe62daeb"><rect x="0" width="8" y="0" height="7"/></clipPath></defs><g id="9c37344348"><path style=" stroke:none;fill-rule:nonzero;fill:#6a6cff;fill-opacity:1;" d="M 45.085938 16.789062 C 46.671875 16.765625 48.238281 17.085938 49.730469 17.625 C 49.390625 17.148438 49 16.734375 48.578125 16.34375 C 47.550781 15.359375 46.558594 14.34375 45.5625 13.328125 C 41.625 9.496094 35.085938 8.875 30.472656 11.835938 C 28.980469 12.671875 27.902344 14.015625 26.707031 15.199219 L 25.660156 15.359375 L 24.800781 15.484375 C 24.316406 15.527344 23.839844 15.613281 23.363281 15.707031 L 23.332031 15.707031 L 21.710938 15.960938 C 20.019531 16.140625 18.328125 16.417969 16.65625 16.746094 C 16.984375 16.757812 17.3125 16.765625 17.640625 16.777344 C 26.800781 16.777344 35.945312 16.789062 45.085938 16.789062 Z M 45.085938 16.789062 "/><g clip-rule="nonzero" clip-path="url(#4b2026c15a)"><path style=" stroke:none;fill-rule:nonzero;fill:#6a6cff;fill-opacity:1;" d="M 25.214844 43.019531 C 24.539062 41.589844 24.875 39.757812 25.710938 38.46875 C 26.398438 37.410156 27.488281 36.742188 28.695312 36.4375 C 30.898438 35.886719 33.382812 36.046875 35.636719 36.046875 C 38.019531 36.046875 40.398438 36.109375 42.769531 36.109375 C 43.953125 36.109375 45.308594 36.289062 46.472656 36.054688 C 47.296875 35.886719 48.089844 35.472656 48.714844 34.902344 C 49.941406 33.792969 50.492188 32.128906 50.566406 30.523438 C 50.609375 29.792969 50.554688 29.050781 50.417969 28.332031 C 49.964844 25.941406 47.878906 24.089844 45.445312 24.003906 C 43.816406 23.941406 42.164062 24.015625 40.527344 24.015625 C 38.769531 24.015625 37.011719 24.015625 35.257812 24.015625 C 31.742188 24.015625 28.230469 24.015625 24.71875 24.015625 C 22.410156 24.015625 20.113281 24.015625 17.808594 24.015625 C 17.214844 24.617188 16.632812 25.199219 16.042969 25.792969 C 14.730469 27.105469 13.320312 28.363281 12.371094 29.980469 C 11.246094 31.824219 10.664062 33.972656 10.582031 36.121094 C 10.519531 38.457031 11.140625 40.796875 12.316406 42.816406 C 13.375 44.574219 14.917969 45.929688 16.335938 47.367188 C 20.0625 51.089844 23.785156 54.816406 27.511719 58.539062 C 28.601562 59.652344 29.785156 60.6875 31.171875 61.429688 C 35.097656 63.546875 40.132812 63.3125 43.871094 60.890625 C 38.082031 55.449219 32.1875 50.128906 26.378906 44.722656 C 25.890625 44.222656 25.511719 43.640625 25.214844 43.019531 Z M 25.214844 43.019531 "/></g><g clip-rule="nonzero" clip-path="url(#b14e921b45)"><path style=" stroke:none;fill-rule:nonzero;fill:#6a6cff;fill-opacity:1;" d="M 62.121094 30.765625 C 61.160156 29 59.75 27.496094 58.3125 26.128906 C 57.867188 25.707031 57.433594 25.285156 56.988281 24.859375 C 57.222656 25.738281 57.488281 26.617188 57.613281 27.527344 C 58.332031 32.914062 56.566406 39.019531 51.605469 41.863281 C 47.011719 44.5 40.789062 44.320312 35.699219 43.535156 C 35.902344 43.738281 36.113281 43.949219 36.3125 44.140625 C 37.003906 44.773438 37.691406 45.398438 38.378906 46.023438 C 43.445312 50.699219 48.503906 55.386719 53.582031 60.042969 C 54.039062 60.464844 54.503906 60.878906 54.980469 61.28125 C 53.539062 59.007812 51.933594 56.835938 50.441406 54.59375 C 53.636719 51.386719 56.839844 48.191406 60.046875 44.984375 C 60.796875 44.234375 61.433594 43.378906 61.941406 42.445312 C 62.832031 40.839844 63.339844 39.027344 63.445312 37.199219 C 63.601562 34.988281 63.191406 32.734375 62.121094 30.765625 Z M 62.121094 30.765625 "/></g><g clip-rule="nonzero" clip-path="url(#cda65fb623)"><g clip-rule="nonzero" clip-path="url(#108f88f47e)"><g transform="matrix(1,0,0,1,45,58)"><g clip-path="url(#85bd4d6778)"><g clip-rule="nonzero" clip-path="url(#bb5aa5dcc9)"><g clip-rule="nonzero" clip-path="url(#af7ff3617c)"><path style=" stroke:none;fill-rule:nonzero;fill:#3b3f3f;fill-opacity:1;" d="M 0.550781 0.464844 L 7.503906 0.464844 L 7.503906 7.417969 L 0.550781 7.417969 Z M 0.550781 0.464844 "/></g></g></g></g></g></g><g clip-rule="nonzero" clip-path="url(#9a9b5ff60e)"><g clip-rule="nonzero" clip-path="url(#feb687720b)"><g transform="matrix(1,0,0,1,10,17)"><g clip-path="url(#2cbe62daeb)"><g clip-rule="nonzero" clip-path="url(#374fa9594a)"><g clip-rule="nonzero" clip-path="url(#80d017b530)"><path style=" stroke:none;fill-rule:nonzero;fill:#3b3f3f;fill-opacity:1;" d="M 0.511719 0.0390625 L 7.464844 0.0390625 L 7.464844 6.992188 L 0.511719 6.992188 Z M 0.511719 0.0390625 "/></g></g></g></g></g></g></g></svg>